# xmcd CD database file
#
# Track frame offsets:
#	150
#	20851
#	40453
#	52371
#	72518
#	86027
#	102969
#	119080
#	135749
#	151294
#
# Disc length: 2145 seconds
#
# Revision: 0
# Processed by: cddbd v1.4PL0 Copyright (c) Steve Scherf et al.
# Submitted via: CDex 1.50Beta7
#
DISCID=9b085f0a
DTITLE=Gart Brooks - Gart Brooks
DYEAR=2000
DGENRE=Country
TTITLE0=Ain't Going Down
TTITLE1=Friends In Low Places
TTITLE2=Callin' Baton Rouge
TTITLE3=The River
TTITLE4=Much Too young 
TTITLE5=The Thunder Rolls 
TTITLE6=American Honky - tonk bar Associ
TTITLE7=If Tomorrow Never Comes
TTITLE8=Unanswered Prayers
TTITLE9=Standing Outside the Fire
EXTD=YEAR: 2000
EXTT0=
EXTT1=
EXTT2=
EXTT3=
EXTT4=
EXTT5=
EXTT6=
EXTT7=
EXTT8=
EXTT9=
PLAYORDER=
